<?xml version="1.0" encoding="UTF-8"?>
<svg width="752pt" height="752pt" version="1.1" viewBox="0 0 752 752" xmlns="http://www.w3.org/2000/svg">
 <g>
  <path d="m317.18 351.66c-0.28516 0.23828-0.56641 0.47266-0.71094 0.71094l-65.309 79.656v-146.39l-22.117-22.117v248.44c0 6.2031 5.0195 10.941 11.223 10.941h248.11z"/>
  <path d="m500.84 251.16v168.21l-15.914-23.914c-5.6367-8.5234-15.391-13.543-25.383-13.543h-0.28516c-9.9922 0-19.465 5.0195-25.383 13.875l-1.4219 2.1328 90.5 90.5 0.003906-248.44c0-5.918-4.6875-10.941-10.941-10.941l-248.44 0.003906 22.117 22.117z"/>
  <path d="m440.67 294.04c10.801 10.801 10.801 28.312 0 39.113-10.801 10.801-28.312 10.801-39.113 0-10.801-10.801-10.801-28.312 0-39.113 10.801-10.801 28.312-10.801 39.113 0"/>
  <path d="m544.6 561.84c2.3672 2.3672 5.4922 3.5977 8.6211 3.5977 3.125 0 6.25-1.1836 8.6211-3.5977 4.7812-4.7812 4.7812-12.504 0-17.238l-354.43-354.43c-4.7812-4.7812-12.504-4.7812-17.238 0-4.7812 4.7812-4.7812 12.504 0 17.238z"/>
 </g>
</svg>
