<svg class="svg-icon" style="width: 1em;height: 1em;vertical-align: middle;fill: currentColor;overflow: hidden;" viewBox="0 0 1024 1024" version="1.1" xmlns="http://www.w3.org/2000/svg"><path d="M509.76 623.68A109.76 109.76 0 0 0 615.68 512l-111.36 111.36z"  /><path d="M960 512a787.2 787.2 0 0 0-158.4-184.64l-119.68 119.68a195.84 195.84 0 0 1 10.88 64 187.84 187.84 0 0 1-183.04 192 176.96 176.96 0 0 1-70.08-14.4l-91.2 91.2A392.96 392.96 0 0 0 512 816c267.52 0 440.64-290.24 448-302.72h-2.24zM385.92 651.52l55.04-55.04 153.6-153.6 55.68-55.68L750.4 288l120.32-120.32-45.44-46.4-131.84 131.84-32-14.08c-10.56-4.48-21.76-8.64-32-12.16A379.52 379.52 0 0 0 512 208C244.48 208 71.36 498.24 64 512h2.24H64a800 800 0 0 0 124.48 154.56l23.68 21.44c8 7.04 16.32 13.76 24.64 20.48l-115.52 116.8 45.44 45.44 123.2-123.2z m-38.4-52.48a188.8 188.8 0 0 1-12.8-32 186.24 186.24 0 0 1-7.04-38.08 174.08 174.08 0 0 1 0-18.24 187.84 187.84 0 0 1 183.04-192 136.96 136.96 0 0 1 25.92 2.24 151.36 151.36 0 0 1 35.84 9.28 156.8 156.8 0 0 1 30.4 14.72L544 403.2a97.6 97.6 0 0 0-33.6-6.08h-5.76a108.8 108.8 0 0 0-99.2 99.2 96 96 0 0 0 0 13.76 122.24 122.24 0 0 0 3.52 28.8l-59.84 59.84z"  /></svg>