<svg class="svg-icon" style="width: 1em; height: 1em;vertical-align: middle;fill: currentColor;overflow: hidden;" viewBox="0 0 1024 1024" version="1.1" xmlns="http://www.w3.org/2000/svg"><path d="M651.669528 512c0-14.5903-2.084475-28.290323-6.251378-41.395806-11.019984 24.423249-35.143405 41.395806-63.733557 41.395806l-7.440459-0.593518-5.957689 0.593518c-30.973432 0-56.285934-25.607214-56.285934-56.882522l0.297782-5.952572-0.297782-7.447623c0-28.290323 16.97665-52.709479 41.097-63.727417-13.104459-4.172019-26.802436-6.252401-41.097-6.252401-77.132728 0-139.67311 62.834071-139.67311 140.263557 0 77.428464 62.540382 139.971915 139.67311 139.971915S651.669528 589.428464 651.669528 512L651.669528 512zM958.70846 512c0 0-153.36904-297.80564-448.198905-297.80564-293.63669 0-445.219037 297.80564-445.219037 297.80564s164.385954 297.804616 447.306582 297.804616C805.038568 809.80564 958.70846 512 958.70846 512L958.70846 512zM304.725748 512c0-114.954125 92.619444-208.164017 207.27374-208.164017 114.657366 0 207.27067 93.209892 207.27067 208.164017 0 114.953102-92.613304 208.167087-207.27067 208.167087C397.345192 720.167087 304.725748 626.953102 304.725748 512L304.725748 512zM304.725748 512"  /></svg>